{"title":"Lukas Moodysson - Container.2006.PAL.DVD.x264-Tree","uid":9598276,"size":1563876495,"categoryP":"video","categoryS":"movies","magnet":"?xt=urn:btih:b4be6fcb6fb0df88263f016780311f7ac5067781&amp;dn=Lukas+Moodysson+-+Container.2006.PAL.DVD.x264-Tree&amp;tr=udp%3A%2F%2Ftracker.openbittorrent.com%3A80&amp;tr=udp%3A%2F%2Fopen.demonii.com%3A1337&amp;tr=udp%3A%2F%2Ftracker.coppersurfer.tk%3A6969&amp;tr=udp%3A%2F%2Fexodus.desync.com%3A6969","seeders":3,"leechers":0,"uploader":"rpessoa","files":1,"time":1392061279,"description":"Poetic, experimental and different, Container is described by Lukas Moodysson as &quot;a black and white silent movie with sound&quot; and with the following words; &quot;A woman in a man's body. A man in a woman's body. Jesus in Mary's stomach. The water breaks. It floods into me. I can't close the lid. My heart is full.&quot; Written by Sido Lanters\n &lt;a href=&quot;\nhttp://www.imdb.com/title/tt0756206/&quot; rel=&quot;nofollow&quot; target=&quot;_NEW&quot;&gt;\nhttp://www.imdb.com/title/tt0756206/&lt;/a&gt;\n\nGeneral\nUnique ID                                : 170214388567436452906050194554332976574 (0x800E194A59E727EAB4231A7AEB1515BE)\nComplete name                            : Container.2006.PAL.DVD.x264-Tree.mkv\nFormat                                   : Matroska\nFormat version                           : Version 2\nFile size                                : 1.46 GiB\nDuration                                 : 1h 11mn\nOverall bit rate                         : 2 924 Kbps\nEncoded date                             : UTC 2010-01-17 16:06:16\nWriting application                      : mkvmerge v3.0.0 ('Hang up your Hang-Ups') built on Dec 12 2009 15:20:35\nWriting library                          : libebml v0.7.9 + libmatroska v0.8.1\n\nVideo\nID                                       : 1\nFormat                                   : AVC\nFormat/Info                              : Advanced Video Codec\nFormat profile                           : &lt;a class=&quot;__cf_email__&quot; href=&quot;/cdn-cgi/l/email-protection&quot; data-cfemail=&quot;256d4c424d6569110b15&quot;&gt;[email&amp;#160;protected]&lt;/a&gt;&lt;script cf-hash='f9e31' type=&quot;text/javascript&quot;&gt;\n/* &lt;![CDATA[ */!function(){try{var t=&quot;currentScript&quot;in document?document.currentScript:function(){for(var t=document.getElementsByTagName(&quot;script&quot;),e=t.length;e--;)if(t[e].getAttribute(&quot;cf-hash&quot;))return t[e]}();if(t&amp;&amp;t.previousSibling){var e,r,n,i,c=t.previousSibling,a=c.getAttribute(&quot;data-cfemail&quot;);if(a){for(e=&quot;&quot;,r=parseInt(a.substr(0,2),16),n=2;a.length-n;n+=2)i=parseInt(a.substr(n,2),16)^r,e+=String.fromCharCode(i);e=document.createTextNode(e),c.parentNode.replaceChild(e,c)}}}catch(u){}}();/* ]]&gt; */&lt;/script&gt;\nFormat settings, CABAC                   : Yes\nFormat settings, ReFrames                : 16 frames\nCodec ID                                 : V_MPEG4/ISO/AVC\nDuration                                 : 1h 11mn\nBit rate                                 : 2 730 Kbps\nWidth                                    : 720 pixels\nHeight                                   : 552 pixels\nDisplay aspect ratio                     : 1.855\nFrame rate                               : 25.000 fps\nColor space                              : YUV\nChroma subsampling                       : 4:2:0\nBit depth                                : 8 bits\nScan type                                : Progressive\nBits/(Pixel*Frame)                       : 0.275\nStream size                              : 1.33 GiB (91%)\nTitle                                    : Video Track\nWriting library                          : x264 core 80 r1376M 3feaec2\nEncoding settings                        : cabac=1 / ref=16 / deblock=1:-2:-2 / analyse=0x3:0x133 / me=umh / subme=10 / psy=1 / psy_rd=1.3:0.1 / mixed_ref=1 / me_range=32 / chroma_me=1 / trellis=2 / 8x8dct=1 / cqm=0 / deadzone=21,11 / fast_pskip=1 / chroma_qp_offset=-3 / threads=6 / sliced_threads=0 / nr=0 / decimate=1 / mbaff=0 / constrained_intra=0 / bframes=8 / b_pyramid=2 / b_adapt=2 / b_bias=0 / direct=3 / wpredb=1 / wpredp=2 / keyint=250 / keyint_min=25 / scenecut=40 / rc_lookahead=60 / rc=2pass / mbtree=1 / bitrate=2730 / ratetol=1.0 / qcomp=0.60 / qpmin=10 / qpmax=51 / qpstep=4 / cplxblur=20.0 / qblur=0.5 / ip_ratio=1.40 / aq=1:1.00\nLanguage                                 : efi\nDefault                                  : Yes\nForced                                   : No\n\nAudio\nID                                       : 2\nFormat                                   : AC-3\nFormat/Info                              : Audio Coding 3\nMode extension                           : CM (complete main)\nCodec ID                                 : A_AC3\nDuration                                 : 1h 11mn\nBit rate mode                            : Constant\nBit rate                                 : 192 Kbps\nChannel(s)                               : 2 channels\nChannel positions                        : Front: L R\nSampling rate                            : 48.0 KHz\nBit depth                                : 16 bits\nCompression mode                         : Lossy\nStream size                              : 97.9 MiB (7%)\nTitle                                    : Audio Track\nLanguage                                 : English\nDefault                                  : Yes\nForced                                   : No","torrent":{"xt":"urn:btih:b4be6fcb6fb0df88263f016780311f7ac5067781","amp;dn":"Lukas+Moodysson+-+Container.2006.PAL.DVD.x264-Tree","amp;tr":["udp%3A%2F%2Ftracker.openbittorrent.com%3A80","udp%3A%2F%2Fopen.demonii.com%3A1337","udp%3A%2F%2Ftracker.coppersurfer.tk%3A6969","udp%3A%2F%2Fexodus.desync.com%3A6969"],"infoHash":"b4be6fcb6fb0df88263f016780311f7ac5067781","infoHashBuffer":{"type":"Buffer","data":[180,190,111,203,111,176,223,136,38,63,1,103,128,49,31,122,197,6,119,129]},"announce":[],"urlList":[]}}